<svg width="302" height="402" viewBox="0 0 302 402" fill="none" xmlns="http://www.w3.org/2000/svg">
<path fill-rule="evenodd" clip-rule="evenodd" d="M0 50.25C0 36.9229 5.30296 24.1416 14.7423 14.7179C24.1816 5.29418 36.9841 0 50.3333 0H165.748C179.096 0.00284603 191.896 5.29889 201.333 14.7232L287.252 100.5C296.692 109.922 301.997 122.701 302 136.027V351.75C302 365.077 296.697 377.858 287.258 387.282C277.818 396.706 265.016 402 251.667 402H50.3333C36.9841 402 24.1816 396.706 14.7423 387.282C5.30296 377.858 0 365.077 0 351.75V50.25Z" fill="url(#paint0_linear)"/>
<defs>
<linearGradient id="paint0_linear" x1="151" y1="0" x2="151" y2="402" gradientUnits="userSpaceOnUse">
<stop stop-color="#EF4444"/>
<stop offset="1" stop-color="#F59E0B"/>
</linearGradient>
</defs>
</svg>